<?xml version="1.0" encoding="UTF-8"?>
<svg id="Layer_1" xmlns="http://www.w3.org/2000/svg" version="1.1" viewBox="0 0 275 60">
  <!-- Generator: Adobe Illustrator 29.1.0, SVG Export Plug-In . SVG Version: 2.1.0 Build 142)  -->
  <defs>
    <style>
      .st0 {
        font-family: BosesRegular, Boses;
        font-size: 36px;
      }

      .st1 {
        fill-rule: evenodd;
      }
    </style>
  </defs>
  <path class="st1" d="M21.8.2C14.3,1.1,7.8,6.5,5.6,13.7c-.6,1.9-.9,3.6-.9,5.9,0,5.2,1.9,9.7,5.5,13.5,2.3,2.4,4.8,4,7.9,5,3,1,3.1,1,17,.9,14.1,0,13,0,15.8-1.3,1.4-.7,1.8-1,3.1-2.3,1.2-1.2,1.6-1.7,2.2-2.8.7-1.3,1.3-3.2,1.3-3.9,0-.2.1.1.2.8.3,1.9,1.3,4,2.4,5.5,1.2,1.6,3.2,3.3,5,4.2,1,.5,3.3,1.2,4,1.2.3,0,0,.1-.9.4-4.2,1.1-7.3,3.4-9.2,7-.7,1.2-1.4,3.5-1.4,4.3,0,.3,0,0-.2-.6-.5-2.5-1.7-4.5-3.5-6.3-1.9-1.8-4.1-2.9-6.6-3.4-1.2-.2-3.4-.2-16.3-.2-16.4,0-15.5,0-18.3.9C5.7,44.7.6,51.3,0,58.5v1.5c0,0,30.1,0,30.1,0,33.5,0,30.6,0,33.8-1,5.8-1.9,10.6-6.8,12.5-12.7.6-1.9.9-3.6.9-5.9,0-5.2-1.9-9.8-5.5-13.5-2.3-2.4-4.8-4-7.9-5-3-1-3.1-1-17-.9-14.1,0-13,0-15.8,1.3-1.4.7-1.8,1-3.1,2.3-1.2,1.2-1.6,1.7-2.2,2.8-.7,1.3-1.3,3.2-1.3,3.9,0,.2-.1-.1-.2-.8-.3-1.9-1.3-4-2.4-5.5-1.2-1.6-3.2-3.3-5-4.2-1-.5-3.3-1.2-4-1.2-.3,0,0-.1.9-.4,4.2-1.1,7.3-3.4,9.2-7,.7-1.2,1.4-3.5,1.4-4.3,0-.3,0,0,.2.6.5,2.4,1.6,4.5,3.4,6.2,1.6,1.6,3.5,2.7,5.7,3.3l1.3.3h15.4c16.9,0,16.2,0,19-.9,7-2.3,12.1-8.8,12.6-16V0c0,0-29.5,0-29.5,0-16.3,0-30,0-30.6.2Z"/>
  <text class="st0" transform="translate(89.8 45.3)"><tspan x="0" y="0">ouksavanh</tspan></text>
</svg>