<svg width="225" height="229" viewBox="0 0 225 229" fill="none" xmlns="http://www.w3.org/2000/svg">
<g clip-path="url(#clip0_5950_26307)">
<path d="M114.16 83.0299C114.16 83.0299 109.93 96.1799 116.74 103.69C123.55 111.2 141.86 119.26 147.26 116.99C152.66 114.72 152.89 94.5299 150.08 88.1899C147.26 81.8499 120.5 79.7399 114.16 83.0199V83.0299ZM212.82 90.5299C207.53 90.3299 202.76 97.2399 200.68 107.06C192.99 108.63 185.9 107.68 180.17 105.97C179.08 93.9599 175.05 82.7999 168.79 73.2199C171.02 70.7999 174.09 68.4399 178.18 67.1899C182.57 71.8499 187.86 73.8499 191.21 71.6999C195.38 69.0199 194.95 60.9199 190.25 53.5999C185.55 46.2799 178.36 42.5299 174.18 45.2099C170.96 47.2799 170.49 52.5899 172.61 58.2599C169.64 61.9199 165.9 63.9199 162.55 65.0099C155.22 56.6599 145.99 50.0199 135.54 45.7699C134.94 39.6999 135.34 31.0599 140.11 22.8199C149.2 23.3499 156.41 20.7899 157.4 16.1499C158.63 10.3899 149.82 3.60994 137.71 1.01994C125.6 -1.57006 114.79 0.989944 113.55 6.75994C112.58 11.2799 117.8 16.4099 125.93 19.6699C126.19 28.7699 122.77 36.2999 119.52 41.3299C115.88 40.7599 112.16 40.4699 108.36 40.4699C100.72 40.4699 93.37 41.6699 86.46 43.8699C83.62 41.3699 78.93 36.1299 78.38 28.5499C83.9 25.2999 87.03 20.5899 85.67 16.8499C83.98 12.1899 75.99 10.7999 67.81 13.7599C59.63 16.7199 54.37 22.8899 56.05 27.5599C57.35 31.1599 62.42 32.7999 68.43 31.9999C73.64 38.6599 73.1 46.5799 72.53 50.0199C65.64 53.9699 59.47 59.0199 54.26 64.9399C49.39 64.2699 40.82 61.9999 34.9 54.4499C38.45 47.0299 38.4 39.7499 34.27 36.7299C29.12 32.9699 19.6 37.2399 13.01 46.2599C6.40997 55.2899 5.23997 65.65 10.38 69.41C14.35 72.31 20.93 70.4199 26.76 65.2499C36.44 68.3899 41.54 76.3399 43.68 80.6899C40.29 87.5499 37.97 95.0299 36.91 102.92C33.3 104.44 27.95 105.75 22.11 104.06C20.98 97.7599 17.64 93.19 13.66 93.16C8.69997 93.13 4.62997 100.15 4.56997 108.84C4.50997 117.54 8.47997 124.61 13.44 124.65C17.27 124.68 20.56 120.49 21.89 114.58C27.46 112.79 32.64 113.79 36.31 115.16C36.66 125.18 39.05 134.69 43.09 143.26C38.76 148.45 32.09 154.33 22.68 157.17C15.53 149.64 7.52997 146.14 3.07997 149.23C-2.44003 153.06 -0.400028 165.58 7.64997 177.19C15.7 188.8 26.71 195.1 32.23 191.27C36.56 188.27 36.22 179.92 32 170.87C38.32 163.73 46.19 160.11 52.57 158.29C59.33 166.54 67.89 173.25 77.65 177.84C78 180.71 77.96 185.5 74.92 189.74C70.25 188.98 66.24 190.18 65.24 192.94C63.99 196.39 67.88 200.95 73.93 203.14C79.98 205.33 85.89 204.3 87.13 200.86C88.09 198.2 85.98 194.87 82.19 192.49C82.34 187.4 85.05 183.64 87.11 181.51C93.82 183.57 100.95 184.69 108.34 184.69C110.53 184.69 112.69 184.58 114.83 184.38C118.52 189.28 123.26 197.69 123.03 208.28C114.81 212.2 109.73 217.91 111.09 222.46C112.78 228.1 123.77 229.79 135.63 226.23C147.49 222.67 155.73 215.21 154.04 209.56C152.71 205.14 145.66 203.16 136.97 204.21C131.94 195.65 131.65 186.62 132.28 180.58C141.93 177.18 150.62 171.79 157.9 164.91C162.1 166.33 168.05 169.36 171.78 175.67C167.87 181.69 167.08 187.99 170.32 191.07C174.35 194.91 183.07 192.29 189.8 185.23C196.53 178.17 198.72 169.33 194.7 165.49C191.59 162.53 185.68 163.42 180.05 167.23C172.95 163.86 169.38 157.63 167.72 153.46C174.11 144.2 178.39 133.36 179.86 121.66C185.71 120.88 192.69 121.05 199.88 123.69C201.07 134.06 205.39 141.7 210.83 141.9C217.58 142.16 223.5 130.87 224.04 116.68C224.58 102.49 219.55 90.7799 212.8 90.5199L212.82 90.5299ZM177.81 49.3099C180.16 47.7999 184.57 50.4599 187.66 55.2599C190.75 60.0599 191.34 65.1799 188.98 66.6899C186.63 68.1999 182.22 65.5399 179.13 60.7399C176.04 55.9399 175.45 50.8199 177.81 49.3099ZM28.05 57.2099C23.15 63.9099 16.32 67.25 12.78 64.66C9.23997 62.08 10.35 54.5499 15.25 47.8499C20.15 41.1499 26.98 37.8099 30.52 40.3999C34.06 42.9799 32.95 50.5099 28.05 57.2099ZM11.99 121.16C8.97997 121.14 6.57997 115.62 6.62997 108.84C6.67997 102.06 9.15997 96.5699 12.16 96.5899C15.17 96.6099 17.57 102.13 17.52 108.91C17.47 115.69 14.99 121.18 11.99 121.16ZM28 187.96C24.58 190.33 16.59 184.73 10.16 175.44C3.71997 166.16 1.26997 156.71 4.68997 154.34C8.10997 151.97 16.1 157.57 22.54 166.86C28.98 176.14 31.43 185.59 28.01 187.96H28ZM179.03 174.94C184.59 169.11 191.12 166.31 193.62 168.69C196.12 171.07 193.64 177.73 188.08 183.56C182.52 189.39 175.99 192.19 173.49 189.81C170.99 187.43 173.47 180.77 179.03 174.94ZM118.51 6.91994C119.25 3.46994 127.53 2.31994 137 4.34994C146.47 6.37994 153.55 10.8199 152.82 14.2699C152.08 17.7199 143.8 18.8699 134.33 16.8399C124.86 14.8099 117.78 10.3699 118.51 6.91994ZM72.38 26.3499C66.7 28.3999 61.23 27.6899 60.17 24.7599C59.11 21.8299 62.86 17.7899 68.54 15.7299C74.22 13.6799 79.69 14.3899 80.75 17.3199C81.81 20.2499 78.06 24.2899 72.38 26.3499ZM84.68 200.86C83.96 202.85 79.46 203.04 74.62 201.29C69.78 199.54 66.44 196.51 67.16 194.52C67.88 192.53 72.38 192.34 77.22 194.09C82.06 195.84 85.4 198.87 84.68 200.86ZM149.73 212.44C150.81 216.05 144.22 221.23 135 223.99C125.78 226.76 117.43 226.07 116.34 222.46C115.26 218.85 121.85 213.67 131.07 210.91C140.29 208.14 148.64 208.83 149.73 212.44ZM159.93 137.8C153.53 147.14 145.25 149.81 143.12 146.87C140.99 143.93 135.11 131.39 144.99 127.92C144.99 127.92 131.51 126.72 137.99 150.54L141.34 165.62C141.34 165.62 136.48 170.05 133.68 170.45C130.88 170.85 129.91 155.4 128.31 154.2C126.71 153 120.9 152.33 121.91 158.34C122.91 164.34 126.18 172.15 124.98 173.15C123.78 174.15 114.37 176.55 113.97 174.95C113.57 173.35 113.77 156.94 112.17 156.14C110.57 155.34 108.37 155.54 108.37 155.54C108.37 155.54 106.17 155.34 104.57 156.14C102.97 156.94 103.17 173.35 102.77 174.95C102.37 176.55 92.96 174.15 91.76 173.15C90.56 172.15 93.83 164.34 94.83 158.34C95.83 152.34 90.03 153 88.43 154.2C86.83 155.4 85.86 170.85 83.06 170.45C80.26 170.05 75.4 165.62 75.4 165.62L78.75 150.54C85.22 126.72 71.75 127.92 71.75 127.92C81.62 131.39 75.75 143.93 73.62 146.87C71.49 149.81 63.21 147.14 56.81 137.8C50.41 128.46 47.47 100.17 61.35 76.6899C75.23 53.2099 108.38 51.6699 108.38 51.6699C108.38 51.6699 141.53 53.1999 155.41 76.6899C169.29 100.17 166.35 128.46 159.95 137.8H159.93ZM220.88 116.57C220.47 127.19 217.17 135.69 213.51 135.55C209.85 135.41 207.21 126.68 207.61 116.06C208.02 105.44 211.32 96.9399 214.98 97.0799C218.64 97.2199 221.28 105.95 220.88 116.57ZM100 103.69C106.81 96.1799 102.58 83.0299 102.58 83.0299C96.24 79.7399 69.48 81.8599 66.66 88.1999C63.84 94.5399 64.08 114.73 69.48 117C74.88 119.27 93.19 111.21 100 103.7V103.69ZM108.37 110.85C108.37 110.85 106.31 111.25 105.11 112.45C103.91 113.65 93.64 132.06 94.57 137C95.5 141.94 100.17 144.34 103.64 142.07C107.11 139.8 108.37 133.4 108.37 133.4C108.37 133.4 109.63 139.8 113.1 142.07C116.57 144.34 121.24 141.94 122.17 137C123.1 132.06 112.83 113.65 111.63 112.45C110.43 111.25 108.37 110.85 108.37 110.85Z" fill="url(#paint0_linear_5950_26307)"/>
</g>
<defs>
<linearGradient id="paint0_linear_5950_26307" x1="228.5" y1="-11.6301" x2="-11.3" y2="228.17" gradientUnits="userSpaceOnUse">
<stop offset="0.12" stop-color="#D90000"/>
<stop offset="0.51" stop-color="#A50000"/>
<stop offset="0.89" stop-color="#780000"/>
</linearGradient>
<clipPath id="clip0_5950_26307">
<rect width="224.1" height="228.09" fill="white"/>
</clipPath>
</defs>
</svg>
